<svg width="17" height="14" viewBox="0 0 17 14" fill="none" xmlns="http://www.w3.org/2000/svg">
  <path d="M9.743 3.19c0 .289-.048.57-.144.843-.095.273-.236.53-.422.773-.187.242-.41.456-.668.639-.257.184-.55.327-.874.426-.318.099-.668.149-1.045.149s-.727-.05-1.045-.149c-.324-.099-.617-.242-.874-.426-.258-.183-.48-.397-.668-.639-.187-.243-.327-.5-.422-.773-.096-.273-.144-.554-.144-.843 0-.288.048-.57.144-.843.095-.273.235-.531.422-.773.188-.243.41-.456.668-.639.257-.184.55-.327.874-.426.318-.099.668-.149 1.045-.149s.727.05 1.045.149c.324.099.617.242.874.426.258.183.48.396.668.639.187.243.327.5.422.773.096.273.144.555.144.843zM8.57 4.97c.168 0 .312.056.432.168.12.112.18.264.18.456 0 .184-.06.336-.18.456-.12.12-.264.18-.432.18s-.312-.06-.432-.18c-.12-.12-.18-.272-.18-.456 0-.192.06-.344.18-.456.12-.112.264-.168.432-.168zM4.82 10.146c0 .266.068.517.204.755.136.238.328.44.576.61.248.171.548.304.9.4.352.096.748.144 1.188.144s.836-.048 1.188-.144c.352-.096.652-.229.9-.4.248-.17.44-.372.576-.61.136-.238.204-.489.204-.755 0-.258-.068-.509-.204-.744-.136-.235-.328-.433-.576-.594-.248-.161-.548-.288-.9-.372-.352-.084-.748-.126-1.188-.126s-.836.042-1.188.126c-.352.084-.652.211-.9.372-.248.161-.44.359-.576.594-.136.235-.204.486-.204.744zm2.016 1.45c.256 0 .48.044.672.132.192.088.348.21.468.366.12.156.18.342.18.558s-.06.402-.18.558c-.12.156-.276.278-.468.366-.192.088-.416.132-.672.132s-.48-.044-.672-.132c-.192-.088-.348-.21-.468-.366-.12-.156-.18-.342-.18-.558s.06-.402.18-.558c.12-.156.276-.278.468-.366.192-.088.416-.132.672-.132zm3.5-8.444c0-.448.076-.869.228-1.262.152-.393.364-.74.636-1.038.272-.298.596-.535.97-.71.374-.175.8-.264 1.278-.264s.904.089 1.278.264c.374.175.698.412.97.71.272.298.484.645.636 1.038.152.393.228.814.228 1.262v8.884c0 .466-.076.902-.228 1.308-.152.406-.364.754-.636 1.048-.272.294-.596.523-.97.686-.374.163-.8.246-1.278.246s-.904-.083-1.278-.246c-.374-.163-.698-.392-.97-.686-.272-.294-.484-.642-.636-1.048-.152-.406-.228-.842-.228-1.308v-8.884zM15.54 4.236c.168 0 .312.056.432.168.12.112.18.264.18.456v6.052c0 .192-.06.344-.18.456-.12.112-.264.168-.432.168s-.312-.056-.432-.168c-.12-.112-.18-.264-.18-.456v-6.052c0-.192.06-.344.18-.456.12-.112.264-.168.432-.168zm-4.08 7.546c.168 0 .312.056.432.168.12.112.18.264.18.456v6.052c0 .192-.06.344-.18.456-.12.112-.264.168-.432.168s-.312-.056-.432-.168c-.12-.112-.18-.264-.18-.456v-6.052c0-.192.06-.344.18-.456.12-.112.264-.168.432-.168zm0-4.976c.168 0 .312.056.432.168.12.112.18.264.18.456v2.06c0 .192-.06.344-.18.456-.12.112-.264.168-.432.168s-.312-.056-.432-.168c-.12-.112-.18-.264-.18-.456v-2.06c0-.192.06-.344.18-.456.12-.112.264-.168.432-.168z" fill="#FFA116"/>
</svg>
